<svg class="svg-canvas" viewBox="0 0 800 600" width="1600" height="1200" preserveAspectRatio="none" version="1.1" xmlns="http://www.w3.org/2000/svg" xmlns:xlink="http://www.w3.org/1999/xlink">
        <!--滤镜-->
        <defs></defs>

        <!-- 背景 -->
        <g id="background">
            <rect x="0" y="0" fill="transparent" width="800" height="600"></rect>
            
          </g>

        <!--元素-->
        
                <g id="shape_9XhNjTDpYm" ref="shape_9XhNjTDpYm" key="shape_9XhNjTDpYm" mask="">
                  <g transform="translate(-107.72068007669805,-31.18946913620121) rotate(0,512.720680076698,329.72068007669805) scale(1,1)" style="opacity: 1;mix-blend-mode: undefined;" filter="">
                    <!--普通元素-->
                    <svg xmlns="http://www.w3.org/2000/svg" version="1.1" xmlns:xlink="http://www.w3.org/1999/xlink" width="1025.441360153396" height="659.4413601533961" viewBox="0 0 1025.441360153396 659.4413601533961" data-ligature="true" data-parent="shape_9XhNjTDpYm"><g data-role="text" data-width="438.96991999999995" data-height="94" transform="translate(293.23572007669804, 282.72068007669805)"><path d="M6.13-62.86L25.63-62.86L41.28-13.76L57.77-62.86L77.28-62.86L77.28 0L64.55 0L64.55-47.12L48.16 0L34.40 0L18.85-47.12L18.85 0L6.13 0L6.13-62.86Z" transform="translate(0 80) " fill="rgb(250, 23, 250)" stroke="rgb(250, 23, 250)" stroke-width="0.157" data-glyph-w="83.77936" data-glyph-h="94.24" data-glyph-ascender="80.95215999999999" data-glyph-descender="-13.28784" data-kerning="0"></path><path d="M27.33-46.55L27.33-46.55Q40.05-46.55 46.08-39.20L46.08-39.20Q51.64-32.51 51.64-22.33L51.64-22.33Q51.64-11.59 44.67-5.18L44.67-5.18Q38.26 0.66 27.14 0.66L27.14 0.66Q15.64 0.66 9.14-5.94L9.14-5.94Q3.11-11.87 3.11-23.28L3.11-23.28Q3.11-32.89 8.86-39.30L8.86-39.30Q15.27-46.46 27.33-46.55ZM27.42-36.94L27.42-36.94Q16.02-36.94 16.02-22.81L16.02-22.81Q16.02-17.06 17.91-14.04L17.91-14.04Q21.02-8.95 27.52-8.95L27.52-8.95Q38.73-8.95 38.73-22.99L38.73-22.99Q38.73-36.75 27.42-36.94Z" transform="translate(83.77936 80) " fill="rgb(250, 23, 250)" stroke="rgb(250, 23, 250)" stroke-width="0.157" data-glyph-w="54.84768" data-glyph-h="94.24" data-glyph-ascender="80.95215999999999" data-glyph-descender="-13.28784" data-kerning="0"></path><path d="M14.32-45.89L26.01-14.32L38.83-45.89L52.21-45.89L32.42 0L18.85 0L0.57-45.89L14.32-45.89Z" transform="translate(138.62704 80) " fill="rgb(250, 23, 250)" stroke="rgb(250, 23, 250)" stroke-width="0.157" data-glyph-w="52.86863999999999" data-glyph-h="94.24" data-glyph-ascender="80.95215999999999" data-glyph-descender="-13.28784" data-kerning="0"></path><path d="M6.13 0L6.13-45.89L18.75-45.89L18.75 0L6.13 0ZM18.75-50.61L6.13-50.61L6.13-62.86L18.75-62.86L18.75-50.61Z" transform="translate(191.49568 80) " fill="rgb(250, 23, 250)" stroke="rgb(250, 23, 250)" stroke-width="0.157" data-glyph-w="25.067839999999997" data-glyph-h="94.24" data-glyph-ascender="80.95215999999999" data-glyph-descender="-13.28784" data-kerning="0"></path><path d="M17.06-27.90L43.63-27.90L43.63-18.09L17.06-18.09Q17.43-13.57 19.98-11.69Q22.52-9.80 28.27-9.80L28.27-9.80L43.63-9.80L43.63 0L26.86 0Q21.39 0 17.95-0.99Q14.51-1.98 11.50-4.24L11.50-4.24Q3.11-10.74 3.11-23.56L3.11-23.56Q3.11-31.85 7.54-38.07L7.54-38.07Q10.55-42.31 14.80-44.10Q19.04-45.89 25.92-45.89L25.92-45.89L43.63-45.89L43.63-36.09L26.86-36.09Q21.68-36.09 19.60-34.35Q17.53-32.61 17.06-27.90L17.06-27.90Z" transform="translate(216.56351999999998 80) " fill="rgb(250, 23, 250)" stroke="rgb(250, 23, 250)" stroke-width="0.157" data-glyph-w="47.77967999999999" data-glyph-h="94.24" data-glyph-ascender="80.95215999999999" data-glyph-descender="-13.28784" data-kerning="0"></path><path d="M41.18 0L6.41 0L6.41-62.86L41.94-62.86Q50.32-62.86 54.09-60.88L54.09-60.88Q58.52-58.71 60.78-53.62L60.78-53.62Q62.39-50.14 62.39-46.37L62.39-46.37Q62.39-41.47 59.80-37.22Q57.20-32.98 53.25-31.38L53.25-31.38Q62.39-27.24 62.39-16.59L62.39-16.59Q62.39-10.46 59.47-6.31L59.47-6.31Q56.92-2.73 52.96-1.37Q49.00 0 41.18 0L41.18 0ZM19.79-51.64L19.79-37.04L37.98-37.04Q40.90-37.04 42.17-37.32Q43.44-37.60 44.67-38.54L44.67-38.54Q47.59-40.81 47.59-44.76L47.59-44.76Q47.59-48.53 44.86-50.32L44.86-50.32Q42.88-51.64 38.26-51.64L38.26-51.64L19.79-51.64ZM19.79-25.82L19.79-11.21L37.98-11.21Q40.90-11.21 42.22-11.50Q43.54-11.78 44.67-12.72L44.67-12.72Q47.59-14.98 47.59-18.94L47.59-18.94Q47.59-22.71 44.86-24.50L44.86-24.50Q42.88-25.82 38.26-25.82L38.26-25.82L19.79-25.82Z" transform="translate(264.34319999999997 80) " fill="rgb(250, 23, 250)" stroke="rgb(250, 23, 250)" stroke-width="0.157" data-glyph-w="65.77951999999999" data-glyph-h="94.24" data-glyph-ascender="80.95215999999999" data-glyph-descender="-13.28784" data-kerning="0"></path><path d="M27.33-46.55L27.33-46.55Q40.05-46.55 46.08-39.20L46.08-39.20Q51.64-32.51 51.64-22.33L51.64-22.33Q51.64-11.59 44.67-5.18L44.67-5.18Q38.26 0.66 27.14 0.66L27.14 0.66Q15.64 0.66 9.14-5.94L9.14-5.94Q3.11-11.87 3.11-23.28L3.11-23.28Q3.11-32.89 8.86-39.30L8.86-39.30Q15.27-46.46 27.33-46.55ZM27.42-36.94L27.42-36.94Q16.02-36.94 16.02-22.81L16.02-22.81Q16.02-17.06 17.91-14.04L17.91-14.04Q21.02-8.95 27.52-8.95L27.52-8.95Q38.73-8.95 38.73-22.99L38.73-22.99Q38.73-36.75 27.42-36.94Z" transform="translate(330.12271999999996 80) " fill="rgb(250, 23, 250)" stroke="rgb(250, 23, 250)" stroke-width="0.157" data-glyph-w="54.84768" data-glyph-h="94.24" data-glyph-ascender="80.95215999999999" data-glyph-descender="-13.28784" data-kerning="0"></path><path d="M25.82-9.80L36.19-9.80L36.19-45.89L48.82-45.89L48.82-0.94Q48.82 8.01 44.10 12.16Q39.39 16.30 29.12 16.30L29.12 16.30L6.60 16.30L6.60 6.50L29.12 6.50Q33.17 6.50 34.40 5.65L34.40 5.65Q35.34 5.09 35.62 4.19Q35.91 3.30 36.19 0L36.19 0L24.97 0Q5.56 0.47 6.60-20.26L6.60-20.26L6.60-45.89L19.22-45.89L19.22-21.49Q19.22-14.32 20.50-12.06Q21.77-9.80 25.82-9.80L25.82-9.80Z" transform="translate(384.9703999999999 80) " fill="rgb(250, 23, 250)" stroke="rgb(250, 23, 250)" stroke-width="0.157" data-glyph-w="53.99952" data-glyph-h="94.24" data-glyph-ascender="80.95215999999999" data-glyph-descender="-13.28784" data-kerning="0"></path></g></svg>
                  </g>
                </g>
                <g id="shape_8WInHcdBY4" ref="shape_8WInHcdBY4" key="shape_8WInHcdBY4" mask="">
                  <g transform="translate(295.0507237799403,354.56445262270586) rotate(0,81.84550010030834,24.81248530849004) scale(1,1)" style="opacity: 1;mix-blend-mode: undefined;" filter="">
                    <!--普通元素-->
                    <svg version="1.1" id="图层_1" xmlns="http://www.w3.org/2000/svg" xmlns:xlink="http://www.w3.org/1999/xlink" x="0px" y="0px" viewBox="0 0 91.7 27.8" enable-background="new 0 0 91.7 27.8" xml:space="preserve" width="163.69100020061668" height="49.62497061698008" class="style-removed" preserveAspectRatio="none" data-parent="shape_8WInHcdBY4">
<g>
	<path fill="#fa17fa" d="M81.4,3.5l-67.7,19c-2.1,0.6-4.2,0.2-5.9-1.1C6,20.1,5,18.1,5,16V0H0v16c0,3.7,1.7,7.2,4.7,9.4
		c2.1,1.6,4.6,2.4,7.1,2.4c1.1,0,2.1-0.2,3.2-0.5l67.7-19c4.2-1.2,7.5-4.3,9-8.3h-5.6C85,1.7,83.4,2.9,81.4,3.5z" stroke-width="0"></path>
</g>
</svg>
                  </g>
                </g>
                <g id="shape_YEG5tZvszG" ref="shape_YEG5tZvszG" key="shape_YEG5tZvszG" mask="">
                  <g transform="translate(295.0507237799403,168.88361045129997) rotate(0,81.84550010030834,45.558878596142414) scale(1,1)" style="opacity: 1;mix-blend-mode: undefined;" filter="">
                    <!--普通元素-->
                    <svg version="1.1" id="图层_1" xmlns="http://www.w3.org/2000/svg" xmlns:xlink="http://www.w3.org/1999/xlink" x="0px" y="0px" viewBox="0 0 91.8 51.1" enable-background="new 0 0 91.8 51.1" xml:space="preserve" width="163.69100020061668" height="91.11775719228483" class="style-removed" preserveAspectRatio="none" data-parent="shape_YEG5tZvszG">
<path fill="#fa17fa" d="M5,35.4c0-2.1,1-4.1,2.7-5.4c1.2-0.9,2.6-1.4,4.1-1.4c0.6,0,1.2,0.1,1.8,0.3l67.7,18.7
	c2.1,0.6,3.8,1.9,4.9,3.6h5.5c-1.5-4-4.8-7.2-9.1-8.4l-28-7.7l0,0l13.1-19.5c0.8-1.1,0.5-2.7-0.7-3.5c-1.1-0.8-2.7-0.5-3.5,0.7
	l-13.5,20c-0.1,0.1-0.2,0.2-0.3,0.2c-0.2,0-0.3-0.1-0.3-0.2l-20-31.6C28.7,0,27.2-0.4,26,0.4c-1.2,0.7-1.5,2.3-0.8,3.5L43,31.8
	l-28-7.7c-3.6-1-7.3-0.3-10.3,2c-3,2.3-4.6,5.7-4.6,9.4v15.7h5V35.4z" stroke-width="0"></path>
</svg>
                  </g>
                </g>
      </svg>